<svg width="38" height="38" viewBox="0 0 38 38" xmlns="http://www.w3.org/2000/svg" xmlns:xlink="http://www.w3.org/1999/xlink"><title>221B539B-8B4A-46C3-88F5-85CDB2B229A0</title><defs><linearGradient x1="33.341%" y1="40.122%" x2="134.971%" y2="55.148%" id="b"><stop stop-color="#13547A" offset="0%"/><stop stop-color="#468E9E" offset="72.029%"/><stop stop-color="#80D0C7" offset="100%"/></linearGradient><circle id="a" cx="17" cy="17" r="17"/><mask id="c" x="-1.6" y="-1.6" width="37.2" height="37.2"><path fill="#fff" d="M-1.6-1.6h37.2v37.2H-1.6z"/><use xlink:href="#a"/></mask></defs><g fill="none" fill-rule="evenodd"><g transform="translate(2 2)"><use fill="url(#b)" xlink:href="#a"/><use stroke="url(#b)" mask="url(#c)" stroke-width="3.2" xlink:href="#a"/></g><path d="M27.807 14.535l3.763 1.008a1.176 1.176 0 0 0 1.436-.834 1.171 1.171 0 0 0-.827-1.44l-4.501-1.206a1.187 1.187 0 0 0-1.317-.033 1.176 1.176 0 0 0-.63 1.157l-1.206 4.501a1.171 1.171 0 0 0 .834 1.436 1.176 1.176 0 0 0 1.44-.826l1.008-3.763zM11.294 24.73l-4.062-1.088a1.27 1.27 0 0 0-1.55.9 1.264 1.264 0 0 0 .892 1.555l4.86 1.302a1.282 1.282 0 0 0 1.421.036 1.27 1.27 0 0 0 .68-1.249l1.302-4.86a1.264 1.264 0 0 0-.9-1.55 1.27 1.27 0 0 0-1.555.893l-1.088 4.062z" fill="#FFF"/><path d="M22.128 9.499A9.991 9.991 0 0 0 19 9C13.477 9 9 13.477 9 19a9.977 9.977 0 0 0 3.453 7.56M19 29c5.523 0 10-4.477 10-10a9.965 9.965 0 0 0-1.871-5.825" stroke="#FFF" stroke-width="2.2" stroke-linecap="round"/></g></svg>